<mxfile host="app.diagrams.net" modified="2024-02-03T20:10:01.567Z" agent="Mozilla/5.0 (Windows NT 10.0; Win64; x64) AppleWebKit/537.36 (KHTML, like Gecko) Chrome/120.0.0.0 Safari/537.36 OPR/106.0.0.0 (Edition Yx GX)" etag="GWhISbY5ie6Kdy6IGbuw" version="23.1.1" type="device">
  <diagram id="C5RBs43oDa-KdzZeNtuy" name="Page-1">
    <mxGraphModel dx="696" dy="461" grid="1" gridSize="10" guides="1" tooltips="1" connect="1" arrows="1" fold="1" page="1" pageScale="1" pageWidth="827" pageHeight="1169" math="0" shadow="0">
      <root>
        <mxCell id="WIyWlLk6GJQsqaUBKTNV-0" />
        <mxCell id="WIyWlLk6GJQsqaUBKTNV-1" parent="WIyWlLk6GJQsqaUBKTNV-0" />
        <mxCell id="cIA8ymqUoOUv_UjENAOg-0" value="" style="edgeStyle=orthogonalEdgeStyle;rounded=0;orthogonalLoop=1;jettySize=auto;html=1;entryX=0.5;entryY=0;entryDx=0;entryDy=0;" parent="WIyWlLk6GJQsqaUBKTNV-1" source="cIA8ymqUoOUv_UjENAOg-1" target="cIA8ymqUoOUv_UjENAOg-6" edge="1">
          <mxGeometry relative="1" as="geometry">
            <mxPoint x="289.4" y="300" as="targetPoint" />
          </mxGeometry>
        </mxCell>
        <mxCell id="cIA8ymqUoOUv_UjENAOg-1" value="Начало" style="rounded=1;whiteSpace=wrap;html=1;arcSize=50;" parent="WIyWlLk6GJQsqaUBKTNV-1" vertex="1">
          <mxGeometry x="240" y="200" width="100" height="50" as="geometry" />
        </mxCell>
        <mxCell id="cIA8ymqUoOUv_UjENAOg-3" value="" style="edgeStyle=orthogonalEdgeStyle;rounded=0;orthogonalLoop=1;jettySize=auto;html=1;strokeWidth=1;dashed=1;dashPattern=12 12;entryX=0.5;entryY=0;entryDx=0;entryDy=0;" parent="WIyWlLk6GJQsqaUBKTNV-1" source="cIA8ymqUoOUv_UjENAOg-4" target="cIA8ymqUoOUv_UjENAOg-6" edge="1">
          <mxGeometry relative="1" as="geometry">
            <Array as="points">
              <mxPoint x="290" y="270" />
            </Array>
            <mxPoint x="290.02857142857135" y="300" as="targetPoint" />
          </mxGeometry>
        </mxCell>
        <mxCell id="cIA8ymqUoOUv_UjENAOg-4" value="#include &amp;lt;iostream&amp;gt;&lt;br&gt;using namespace std;&lt;br&gt;int main()&lt;br&gt;{&lt;br&gt;&lt;span style=&quot;white-space: pre;&quot;&gt;&#x9;&lt;/span&gt;setlocale (LC_ALL, &quot;ru_RU&quot;);" style="strokeWidth=1;html=1;shape=mxgraph.flowchart.annotation_2;align=left;labelPosition=right;pointerEvents=1;dashed=1;dashPattern=12 12;" parent="WIyWlLk6GJQsqaUBKTNV-1" vertex="1">
          <mxGeometry x="400" y="220" width="30" height="100" as="geometry" />
        </mxCell>
        <mxCell id="cIA8ymqUoOUv_UjENAOg-78" value="" style="edgeStyle=orthogonalEdgeStyle;rounded=0;orthogonalLoop=1;jettySize=auto;html=1;" parent="WIyWlLk6GJQsqaUBKTNV-1" source="cIA8ymqUoOUv_UjENAOg-6" target="cIA8ymqUoOUv_UjENAOg-77" edge="1">
          <mxGeometry relative="1" as="geometry" />
        </mxCell>
        <mxCell id="cIA8ymqUoOUv_UjENAOg-6" value="const int n = 100" style="rounded=0;whiteSpace=wrap;html=1;" parent="WIyWlLk6GJQsqaUBKTNV-1" vertex="1">
          <mxGeometry x="237.5" y="330" width="105" height="50" as="geometry" />
        </mxCell>
        <mxCell id="cIA8ymqUoOUv_UjENAOg-83" value="" style="edgeStyle=orthogonalEdgeStyle;rounded=0;orthogonalLoop=1;jettySize=auto;html=1;" parent="WIyWlLk6GJQsqaUBKTNV-1" source="cIA8ymqUoOUv_UjENAOg-8" target="cIA8ymqUoOUv_UjENAOg-82" edge="1">
          <mxGeometry relative="1" as="geometry" />
        </mxCell>
        <mxCell id="cIA8ymqUoOUv_UjENAOg-8" value="int a[d];" style="rounded=0;whiteSpace=wrap;html=1;" parent="WIyWlLk6GJQsqaUBKTNV-1" vertex="1">
          <mxGeometry x="237.5" y="490" width="103.75" height="50" as="geometry" />
        </mxCell>
        <mxCell id="cIA8ymqUoOUv_UjENAOg-11" value="" style="edgeStyle=orthogonalEdgeStyle;rounded=0;orthogonalLoop=1;jettySize=auto;html=1;" parent="WIyWlLk6GJQsqaUBKTNV-1" source="cIA8ymqUoOUv_UjENAOg-13" target="cIA8ymqUoOUv_UjENAOg-15" edge="1">
          <mxGeometry relative="1" as="geometry" />
        </mxCell>
        <mxCell id="cIA8ymqUoOUv_UjENAOg-12" value="" style="edgeStyle=orthogonalEdgeStyle;rounded=0;orthogonalLoop=1;jettySize=auto;html=1;exitX=1;exitY=0.5;exitDx=0;exitDy=0;entryX=0.5;entryY=0;entryDx=0;entryDy=0;" parent="WIyWlLk6GJQsqaUBKTNV-1" source="cIA8ymqUoOUv_UjENAOg-13" target="cIA8ymqUoOUv_UjENAOg-89" edge="1">
          <mxGeometry relative="1" as="geometry">
            <mxPoint x="449.97" y="760" as="sourcePoint" />
            <Array as="points">
              <mxPoint x="470" y="767" />
              <mxPoint x="470" y="1030" />
              <mxPoint x="289" y="1030" />
            </Array>
            <mxPoint x="289.97" y="1050" as="targetPoint" />
          </mxGeometry>
        </mxCell>
        <mxCell id="cIA8ymqUoOUv_UjENAOg-13" value="for (int i = 0; i &amp;lt; n; i++)" style="shape=hexagon;perimeter=hexagonPerimeter2;whiteSpace=wrap;html=1;fixedSize=1;rounded=0;" parent="WIyWlLk6GJQsqaUBKTNV-1" vertex="1">
          <mxGeometry x="199.38" y="740" width="180" height="55" as="geometry" />
        </mxCell>
        <mxCell id="cIA8ymqUoOUv_UjENAOg-14" value="" style="edgeStyle=orthogonalEdgeStyle;rounded=0;orthogonalLoop=1;jettySize=auto;html=1;" parent="WIyWlLk6GJQsqaUBKTNV-1" source="cIA8ymqUoOUv_UjENAOg-15" target="cIA8ymqUoOUv_UjENAOg-17" edge="1">
          <mxGeometry relative="1" as="geometry" />
        </mxCell>
        <mxCell id="cIA8ymqUoOUv_UjENAOg-15" value="arr[i] = rand() % 10" style="whiteSpace=wrap;html=1;rounded=0;" parent="WIyWlLk6GJQsqaUBKTNV-1" vertex="1">
          <mxGeometry x="226.19" y="830" width="127.55" height="57.5" as="geometry" />
        </mxCell>
        <mxCell id="cIA8ymqUoOUv_UjENAOg-16" style="edgeStyle=orthogonalEdgeStyle;rounded=0;orthogonalLoop=1;jettySize=auto;html=1;exitX=0.5;exitY=1;exitDx=0;exitDy=0;entryX=0;entryY=0.5;entryDx=0;entryDy=0;" parent="WIyWlLk6GJQsqaUBKTNV-1" source="cIA8ymqUoOUv_UjENAOg-17" target="cIA8ymqUoOUv_UjENAOg-13" edge="1">
          <mxGeometry relative="1" as="geometry">
            <Array as="points">
              <mxPoint x="289.97" y="1004" />
              <mxPoint x="149.97" y="1004" />
              <mxPoint x="149.97" y="767" />
            </Array>
          </mxGeometry>
        </mxCell>
        <mxCell id="cIA8ymqUoOUv_UjENAOg-17" value="cout &amp;lt;&amp;lt; arr[i] &amp;lt;&amp;lt; &quot; &quot;;" style="shape=parallelogram;perimeter=parallelogramPerimeter;whiteSpace=wrap;html=1;fixedSize=1;rounded=0;" parent="WIyWlLk6GJQsqaUBKTNV-1" vertex="1">
          <mxGeometry x="209.97" y="930" width="160" height="53.75" as="geometry" />
        </mxCell>
        <mxCell id="cIA8ymqUoOUv_UjENAOg-73" value="Конец" style="rounded=1;whiteSpace=wrap;html=1;arcSize=50;" parent="WIyWlLk6GJQsqaUBKTNV-1" vertex="1">
          <mxGeometry x="237.5" y="1820" width="105" height="50" as="geometry" />
        </mxCell>
        <mxCell id="cIA8ymqUoOUv_UjENAOg-74" value="return 0;&lt;br&gt;}" style="strokeWidth=1;html=1;shape=mxgraph.flowchart.annotation_2;align=left;labelPosition=right;pointerEvents=1;dashed=1;dashPattern=12 12;" parent="WIyWlLk6GJQsqaUBKTNV-1" vertex="1">
          <mxGeometry x="470" y="1720" width="30" height="100" as="geometry" />
        </mxCell>
        <mxCell id="cIA8ymqUoOUv_UjENAOg-75" value="" style="edgeStyle=orthogonalEdgeStyle;rounded=0;orthogonalLoop=1;jettySize=auto;html=1;strokeWidth=1;dashed=1;dashPattern=12 12;exitX=0;exitY=0.5;exitDx=0;exitDy=0;exitPerimeter=0;entryX=0.5;entryY=0;entryDx=0;entryDy=0;" parent="WIyWlLk6GJQsqaUBKTNV-1" source="cIA8ymqUoOUv_UjENAOg-74" target="cIA8ymqUoOUv_UjENAOg-73" edge="1">
          <mxGeometry relative="1" as="geometry">
            <mxPoint x="422.5" y="1755" as="sourcePoint" />
            <mxPoint x="270" y="1790" as="targetPoint" />
            <Array as="points">
              <mxPoint x="290" y="1770" />
            </Array>
          </mxGeometry>
        </mxCell>
        <mxCell id="cIA8ymqUoOUv_UjENAOg-79" value="" style="edgeStyle=orthogonalEdgeStyle;rounded=0;orthogonalLoop=1;jettySize=auto;html=1;" parent="WIyWlLk6GJQsqaUBKTNV-1" source="cIA8ymqUoOUv_UjENAOg-77" target="cIA8ymqUoOUv_UjENAOg-8" edge="1">
          <mxGeometry relative="1" as="geometry" />
        </mxCell>
        <mxCell id="cIA8ymqUoOUv_UjENAOg-77" value="bool t = 1;" style="rounded=0;whiteSpace=wrap;html=1;" parent="WIyWlLk6GJQsqaUBKTNV-1" vertex="1">
          <mxGeometry x="237.5" y="410" width="105" height="50" as="geometry" />
        </mxCell>
        <mxCell id="cIA8ymqUoOUv_UjENAOg-87" value="" style="edgeStyle=orthogonalEdgeStyle;rounded=0;orthogonalLoop=1;jettySize=auto;html=1;" parent="WIyWlLk6GJQsqaUBKTNV-1" source="cIA8ymqUoOUv_UjENAOg-82" target="cIA8ymqUoOUv_UjENAOg-86" edge="1">
          <mxGeometry relative="1" as="geometry" />
        </mxCell>
        <mxCell id="cIA8ymqUoOUv_UjENAOg-82" value="int n;" style="rounded=0;whiteSpace=wrap;html=1;" parent="WIyWlLk6GJQsqaUBKTNV-1" vertex="1">
          <mxGeometry x="237.5" y="570" width="103.75" height="50" as="geometry" />
        </mxCell>
        <mxCell id="cIA8ymqUoOUv_UjENAOg-88" value="" style="edgeStyle=orthogonalEdgeStyle;rounded=0;orthogonalLoop=1;jettySize=auto;html=1;" parent="WIyWlLk6GJQsqaUBKTNV-1" source="cIA8ymqUoOUv_UjENAOg-86" target="cIA8ymqUoOUv_UjENAOg-13" edge="1">
          <mxGeometry relative="1" as="geometry" />
        </mxCell>
        <mxCell id="cIA8ymqUoOUv_UjENAOg-86" value="cin &amp;gt;&amp;gt; n;" style="shape=parallelogram;perimeter=parallelogramPerimeter;whiteSpace=wrap;html=1;fixedSize=1;" parent="WIyWlLk6GJQsqaUBKTNV-1" vertex="1">
          <mxGeometry x="229.38" y="650" width="120" height="50" as="geometry" />
        </mxCell>
        <mxCell id="cIA8ymqUoOUv_UjENAOg-91" value="" style="edgeStyle=orthogonalEdgeStyle;rounded=0;orthogonalLoop=1;jettySize=auto;html=1;" parent="WIyWlLk6GJQsqaUBKTNV-1" source="cIA8ymqUoOUv_UjENAOg-89" target="cIA8ymqUoOUv_UjENAOg-90" edge="1">
          <mxGeometry relative="1" as="geometry" />
        </mxCell>
        <mxCell id="cIA8ymqUoOUv_UjENAOg-89" value="cout &amp;lt;&amp;lt; endl;" style="shape=parallelogram;perimeter=parallelogramPerimeter;whiteSpace=wrap;html=1;fixedSize=1;" parent="WIyWlLk6GJQsqaUBKTNV-1" vertex="1">
          <mxGeometry x="229.38" y="1060" width="120" height="50" as="geometry" />
        </mxCell>
        <mxCell id="cIA8ymqUoOUv_UjENAOg-93" value="" style="edgeStyle=orthogonalEdgeStyle;rounded=0;orthogonalLoop=1;jettySize=auto;html=1;" parent="WIyWlLk6GJQsqaUBKTNV-1" source="cIA8ymqUoOUv_UjENAOg-90" target="cIA8ymqUoOUv_UjENAOg-92" edge="1">
          <mxGeometry relative="1" as="geometry" />
        </mxCell>
        <mxCell id="cIA8ymqUoOUv_UjENAOg-104" style="edgeStyle=orthogonalEdgeStyle;rounded=0;orthogonalLoop=1;jettySize=auto;html=1;exitX=1;exitY=0.5;exitDx=0;exitDy=0;" parent="WIyWlLk6GJQsqaUBKTNV-1" source="cIA8ymqUoOUv_UjENAOg-90" target="cIA8ymqUoOUv_UjENAOg-103" edge="1">
          <mxGeometry relative="1" as="geometry">
            <Array as="points">
              <mxPoint x="450" y="1183" />
              <mxPoint x="450" y="1490" />
              <mxPoint x="289" y="1490" />
            </Array>
          </mxGeometry>
        </mxCell>
        <mxCell id="cIA8ymqUoOUv_UjENAOg-90" value="for (int i = 0; i &amp;lt; d-1; i++)" style="shape=hexagon;perimeter=hexagonPerimeter2;whiteSpace=wrap;html=1;fixedSize=1;" parent="WIyWlLk6GJQsqaUBKTNV-1" vertex="1">
          <mxGeometry x="199.07" y="1150" width="180.62" height="65" as="geometry" />
        </mxCell>
        <mxCell id="cIA8ymqUoOUv_UjENAOg-96" style="edgeStyle=orthogonalEdgeStyle;rounded=0;orthogonalLoop=1;jettySize=auto;html=1;exitX=0;exitY=0.5;exitDx=0;exitDy=0;entryX=0.5;entryY=0;entryDx=0;entryDy=0;" parent="WIyWlLk6GJQsqaUBKTNV-1" source="cIA8ymqUoOUv_UjENAOg-92" target="cIA8ymqUoOUv_UjENAOg-94" edge="1">
          <mxGeometry relative="1" as="geometry" />
        </mxCell>
        <mxCell id="cIA8ymqUoOUv_UjENAOg-100" style="edgeStyle=orthogonalEdgeStyle;rounded=0;orthogonalLoop=1;jettySize=auto;html=1;exitX=1;exitY=0.5;exitDx=0;exitDy=0;entryX=0;entryY=0.5;entryDx=0;entryDy=0;" parent="WIyWlLk6GJQsqaUBKTNV-1" source="cIA8ymqUoOUv_UjENAOg-92" target="cIA8ymqUoOUv_UjENAOg-90" edge="1">
          <mxGeometry relative="1" as="geometry">
            <Array as="points">
              <mxPoint x="410" y="1301" />
              <mxPoint x="410" y="1430" />
              <mxPoint x="290" y="1430" />
              <mxPoint x="290" y="1460" />
              <mxPoint x="100" y="1460" />
              <mxPoint x="100" y="1183" />
            </Array>
          </mxGeometry>
        </mxCell>
        <mxCell id="cIA8ymqUoOUv_UjENAOg-92" value="if (a[i] &amp;gt;= a[i + 1])" style="rhombus;whiteSpace=wrap;html=1;" parent="WIyWlLk6GJQsqaUBKTNV-1" vertex="1">
          <mxGeometry x="222.66" y="1260" width="134.69" height="82.5" as="geometry" />
        </mxCell>
        <mxCell id="cIA8ymqUoOUv_UjENAOg-99" style="edgeStyle=orthogonalEdgeStyle;rounded=0;orthogonalLoop=1;jettySize=auto;html=1;exitX=0.5;exitY=1;exitDx=0;exitDy=0;entryX=0;entryY=0.5;entryDx=0;entryDy=0;" parent="WIyWlLk6GJQsqaUBKTNV-1" source="cIA8ymqUoOUv_UjENAOg-94" target="cIA8ymqUoOUv_UjENAOg-90" edge="1">
          <mxGeometry relative="1" as="geometry">
            <Array as="points">
              <mxPoint x="168" y="1430" />
              <mxPoint x="289" y="1430" />
              <mxPoint x="289" y="1460" />
              <mxPoint x="100" y="1460" />
              <mxPoint x="100" y="1183" />
            </Array>
          </mxGeometry>
        </mxCell>
        <mxCell id="cIA8ymqUoOUv_UjENAOg-94" value="t = 0;" style="whiteSpace=wrap;html=1;" parent="WIyWlLk6GJQsqaUBKTNV-1" vertex="1">
          <mxGeometry x="119.99999999999999" y="1360" width="95.93" height="50" as="geometry" />
        </mxCell>
        <mxCell id="cIA8ymqUoOUv_UjENAOg-101" value="true" style="text;html=1;align=center;verticalAlign=middle;resizable=0;points=[];autosize=1;strokeColor=none;fillColor=none;" parent="WIyWlLk6GJQsqaUBKTNV-1" vertex="1">
          <mxGeometry x="175.93" y="1270" width="40" height="30" as="geometry" />
        </mxCell>
        <mxCell id="cIA8ymqUoOUv_UjENAOg-102" value="false" style="text;html=1;align=center;verticalAlign=middle;resizable=0;points=[];autosize=1;strokeColor=none;fillColor=none;" parent="WIyWlLk6GJQsqaUBKTNV-1" vertex="1">
          <mxGeometry x="364" y="1270" width="50" height="30" as="geometry" />
        </mxCell>
        <mxCell id="cIA8ymqUoOUv_UjENAOg-106" value="" style="edgeStyle=orthogonalEdgeStyle;rounded=0;orthogonalLoop=1;jettySize=auto;html=1;" parent="WIyWlLk6GJQsqaUBKTNV-1" source="cIA8ymqUoOUv_UjENAOg-103" target="cIA8ymqUoOUv_UjENAOg-105" edge="1">
          <mxGeometry relative="1" as="geometry">
            <Array as="points">
              <mxPoint x="142" y="1555" />
            </Array>
          </mxGeometry>
        </mxCell>
        <mxCell id="cIA8ymqUoOUv_UjENAOg-108" value="" style="edgeStyle=orthogonalEdgeStyle;rounded=0;orthogonalLoop=1;jettySize=auto;html=1;" parent="WIyWlLk6GJQsqaUBKTNV-1" source="cIA8ymqUoOUv_UjENAOg-103" target="cIA8ymqUoOUv_UjENAOg-107" edge="1">
          <mxGeometry relative="1" as="geometry">
            <Array as="points">
              <mxPoint x="440" y="1555" />
            </Array>
          </mxGeometry>
        </mxCell>
        <mxCell id="cIA8ymqUoOUv_UjENAOg-103" value="if (t==1)" style="rhombus;whiteSpace=wrap;html=1;" parent="WIyWlLk6GJQsqaUBKTNV-1" vertex="1">
          <mxGeometry x="244.06" y="1520" width="90.62" height="70" as="geometry" />
        </mxCell>
        <mxCell id="cIA8ymqUoOUv_UjENAOg-113" style="edgeStyle=orthogonalEdgeStyle;rounded=0;orthogonalLoop=1;jettySize=auto;html=1;exitX=0.5;exitY=1;exitDx=0;exitDy=0;entryX=0.5;entryY=0;entryDx=0;entryDy=0;" parent="WIyWlLk6GJQsqaUBKTNV-1" source="cIA8ymqUoOUv_UjENAOg-105" target="cIA8ymqUoOUv_UjENAOg-73" edge="1">
          <mxGeometry relative="1" as="geometry">
            <Array as="points">
              <mxPoint x="142" y="1720" />
              <mxPoint x="290" y="1720" />
            </Array>
          </mxGeometry>
        </mxCell>
        <mxCell id="cIA8ymqUoOUv_UjENAOg-105" value="cout &amp;lt;&amp;lt; &quot;Массив упорядочен по возрастанию&quot; &amp;lt;&amp;lt; endl;" style="shape=parallelogram;perimeter=parallelogramPerimeter;whiteSpace=wrap;html=1;fixedSize=1;" parent="WIyWlLk6GJQsqaUBKTNV-1" vertex="1">
          <mxGeometry x="30" y="1630" width="223.81" height="50" as="geometry" />
        </mxCell>
        <mxCell id="cIA8ymqUoOUv_UjENAOg-111" style="edgeStyle=orthogonalEdgeStyle;rounded=0;orthogonalLoop=1;jettySize=auto;html=1;exitX=0.5;exitY=1;exitDx=0;exitDy=0;" parent="WIyWlLk6GJQsqaUBKTNV-1" source="cIA8ymqUoOUv_UjENAOg-107" edge="1">
          <mxGeometry relative="1" as="geometry">
            <mxPoint x="290" y="1820" as="targetPoint" />
            <Array as="points">
              <mxPoint x="440" y="1720" />
              <mxPoint x="290" y="1720" />
            </Array>
          </mxGeometry>
        </mxCell>
        <mxCell id="cIA8ymqUoOUv_UjENAOg-107" value="cout &amp;lt;&amp;lt; &quot;Массив не упорядочен по возрастанию&quot; &amp;lt;&amp;lt; endl;" style="shape=parallelogram;perimeter=parallelogramPerimeter;whiteSpace=wrap;html=1;fixedSize=1;" parent="WIyWlLk6GJQsqaUBKTNV-1" vertex="1">
          <mxGeometry x="319.97" y="1630" width="240.03" height="50" as="geometry" />
        </mxCell>
        <mxCell id="cIA8ymqUoOUv_UjENAOg-109" value="true" style="text;html=1;align=center;verticalAlign=middle;resizable=0;points=[];autosize=1;strokeColor=none;fillColor=none;" parent="WIyWlLk6GJQsqaUBKTNV-1" vertex="1">
          <mxGeometry x="189.38" y="1530" width="40" height="30" as="geometry" />
        </mxCell>
        <mxCell id="cIA8ymqUoOUv_UjENAOg-110" value="false" style="text;html=1;align=center;verticalAlign=middle;resizable=0;points=[];autosize=1;strokeColor=none;fillColor=none;" parent="WIyWlLk6GJQsqaUBKTNV-1" vertex="1">
          <mxGeometry x="353.74" y="1530" width="50" height="30" as="geometry" />
        </mxCell>
      </root>
    </mxGraphModel>
  </diagram>
</mxfile>
